<?xml version="1.0" encoding="utf-8"?>
<!-- Generator: Adobe Illustrator 24.3.0, SVG Export Plug-In . SVG Version: 6.00 Build 0)  -->
<svg version="1.1" id="Calque_1" xmlns="http://www.w3.org/2000/svg" xmlns:xlink="http://www.w3.org/1999/xlink" x="0px" y="0px"
	 viewBox="0 0 479.5 136" style="enable-background:new 0 0 479.5 136;" xml:space="preserve">
<style type="text/css">
	.st0{fill:#1D1D1D;}
	.st1{fill:#1E1E1E;}
	.st2{fill:#1F1F1F;}
	.st3{fill:#FFFFFF;}
	.st4{fill:#020202;}
</style>
<g>
	<path class="st0" d="M350.4,104.8c-2.1,1.6-3.7,2.8-5.4,4c-4.7,3.2-9.7,5.5-15.6,5.5c-4.2,0-6.1-1.3-7.3-5.3
		c-1.8-6.8-2.6-13.9-2.4-21c0-3.6,0.2-7.2-0.6-10.7c-0.8-2.3,0.2-4.9,2.4-6.1c1.7-1.1,3-2.9,4.6-4.2c0.9-0.7,2.3-1.9,2.8,0.5
		c0.1,0.4,0.3,0.8,0.7,0.8c3.9-0.6,2.3,1.7,1.7,3.4c-3,8-3.4,15.9-0.3,23.9c0.5,1.4,1.2,2.7,1.9,4c2.6,4.3,4.8,5,9.5,3.3
		c8.3-3.1,8.5-3.5,8.1-12.3c-0.2-5.9-1.3-11.7-3.3-17.2c-1-2.8,2.5-8.1,5.5-8.3c2-0.1,2,1.8,2.6,2.8c0.9,1.5,1.3,1.8,2.4,0.3
		c0.8-1,1.8-2.2,3.2-1.8s1.1,2,1.3,3.1c2.1,13.4,2.3,27,0.6,40.5c-0.5,3.5-2.7,5.7-5.3,7.6c-1.5,1.2-2.4,0.6-2.4-1.3
		c0-0.6,0-1.2,0-1.8c0.1-2,0.8-4.7-2.7-1.9c-1.4,1.1-2.5,0.3-2.5-1.4C350,109.2,350.2,107.3,350.4,104.8z"/>
	<path class="st0" d="M195.5,66.1c0.2,1.8-0.8,3.9,0,6.4c1.4-1.1,2.5-2.1,3.7-3.1c4-3.2,8.4-5.9,13.6-5.1
		c7.1,1.1,11.9,3.7,12.6,11.2c0.1,0.8,0.6,2-0.4,2.1c-2.6,0.4-2.7,2.6-3.6,4.3c-1.4,2.8-1.7,2.8-3.5,0.4c-4.4-5.8-16.5-6.6-21.9-1.4
		c-0.7,0.7-1.1,1.7-0.9,2.7c0.2,2,0.1,4.1,0.8,5.9c2.7,6.3,2,13.3,4.3,19.5c1.5,4-0.8,5.9-3.1,8s-3.1,1.7-4.7-0.8
		c-0.4-0.6-0.7-1.2-1-1.8c-0.6-1.6-1.3-2.2-2.6-0.6c-0.9,1.1-2,2.4-3.5,1.8s-1.7-2.4-1.8-3.8c-0.9-10.9-2.8-21.7-4.2-32.6
		c-0.2-1.9-0.1-3.6,1.7-4.7c0.9-0.5,0.9-1.5,1.2-2.3c0.7-1.8,1.8-3.4,3.3-4.6c1.3-1.1,2.6-3,4.4-0.7c0.4-0.3,0.8-0.5,1.1-0.8
		c0.8-0.6,1.1-1.2,1.8,0.4C193.8,68,194.3,65.1,195.5,66.1z"/>
	<path class="st0" d="M391.8,66.1c0.2,1.9-0.8,3.9-0.1,6.4c1.4-1.1,2.5-2.1,3.7-3.1c4-3.2,8.4-5.9,13.6-5.1
		c7.1,1.1,11.9,3.7,12.6,11.2c0.1,0.8,0.6,2-0.4,2.1c-2.6,0.4-2.7,2.6-3.6,4.3c-1.4,2.8-1.7,2.8-3.5,0.4c-4.4-5.8-16.5-6.6-21.9-1.4
		c-0.7,0.7-1.1,1.7-0.9,2.7c0.2,2,0.1,4.1,0.8,5.9c2.7,6.3,2,13.3,4.3,19.5c1.5,4-0.8,5.9-3.1,8s-3.1,1.7-4.7-0.8
		c-0.4-0.6-0.7-1.2-1-1.8c-0.6-1.6-1.3-2.2-2.6-0.6c-0.9,1.1-2,2.4-3.5,1.8s-1.7-2.4-1.8-3.8c-0.8-11-2.8-21.7-4.1-32.6
		c-0.2-1.9-0.1-3.6,1.7-4.7c0.9-0.5,0.9-1.5,1.2-2.3c0.7-1.8,1.8-3.4,3.3-4.6c1.3-1.1,2.5-3,4.5-0.7c0.4-0.3,0.8-0.5,1.1-0.8
		c0.8-0.6,1.1-1.2,1.8,0.4C390,68,390.5,65.1,391.8,66.1z"/>
	<path class="st1" d="M245.1,83.6c-0.4,8.4,0.3,16.8,2.2,24.9c0.6,3-2,7.2-5.6,8.5c-1.2,0.5-2.4,1.6-3.9,1.1c-2-0.6-3.3-1.4-3.8-4
		c-1.5-8.8-0.9-17.7-1.7-26.5c-0.1-1.1,0.1-2.2-0.1-3.3c-1.1-7,2.6-11.3,8.1-14.6c1.3-0.8,4.7,1.3,4.7,2.8
		C245.1,76.2,245.1,79.9,245.1,83.6z"/>
	<path class="st2" d="M233.8,63c-0.5-5.1,1.1-10.1,4.5-14c1.2-1.4,2.6-3.4,4.9-2.3s3.9,4.6,2.8,7c-2,4.3-3.3,9-6.8,12.4
		c-0.1,0.1-0.2,0.3-0.4,0.5c-1.2,1.3-2.4,3.4-4.2,2.8c-1.6-0.5-0.6-2.8-0.8-4.3C233.7,64.3,233.7,63.7,233.8,63z"/>
	<path class="st0" d="M171.3,57.8c-3.1-11.4-18.4-17.3-28.4-15.3C129,45.4,120.4,55,115.4,67.3c-5.3,13.1-3.4,26.5,3.4,38.9
		c5,9.1,14,13.2,24.2,11.7c17-2.4,32.4-20.3,32.4-39.2C174.3,72.8,173.4,65.2,171.3,57.8z M123.6,62.3c-0.1-5.5,8-12.2,14.7-11.9
		C132.4,53.5,127.5,57,123.6,62.3z M135.4,100.3c-4-4.8-5.5-10.5-6.2-16.5c-0.3-2.8-0.4-5.6-0.5-8c0.1-2.7,0.3-5.1,0.4-7.5
		c0.7-9.2,9.8-15.5,18.9-13.6c2.8,0.5,5.3,2.3,6.8,4.7c6.4,9.6,8.8,21.5,6.5,32.8c-0.7,4.6-4,8.3-8.4,9.6c-2.5,0.9-5,1.4-7.5,2
		C141.2,105.1,138.1,103.5,135.4,100.3L135.4,100.3z M164.1,100.4c-4,6.9-12.2,11.2-19.6,9.8c8.6-1.9,14.4-7.6,20-13.7l2-3.2
		C166.6,96,165.7,98.5,164.1,100.4L164.1,100.4z"/>
	<path class="st0" d="M309.5,90.8c-1.1-4.6-3.1-8.9-5.9-12.7c-1.6-2-3.5-3.8-5.6-5.3c-4.2-3.5-9.3-3.1-14.1-4
		c-2.7-0.6-5.4-0.1-7.8,1.3c-8.7,5.3-15.3,12.5-18.1,22.5c-2.7,9.4,1.1,18.3,9.5,22.5c4.8,2.4,9.8,2.6,14.8,3.1c2.1,0,4.2,0,6.3,0
		c2.8,0.1,5.6-0.8,7.8-2.6c2.8-2.3,5.7-4.5,8-7.2C308.4,103.3,311.1,97.5,309.5,90.8z M296.6,111c0.6-2.1,2.3-2.2,3.5-3
		C299.6,109.6,298.2,110.7,296.6,111z M296.3,103.8c-4.3,2.4-9,3.2-13.9,3.4c-5.8-0.4-11.3-1.6-14.5-7.2c-3-5.3-0.7-15.2,4.3-18.7
		c1.6-1.1,3.5-1.5,5.5-1.3c9.4,0.8,16.5,5.7,21.5,13.4C301.9,97.5,300.5,101.3,296.3,103.8L296.3,103.8z"/>
	<path class="st0" d="M462.5,95.9c-1.4-1.9-3.1-3.6-4.8-5.2c-1.3-1.2-2.7-2.2-4.2-3.2l-0.7-0.4l-0.8,0.2c-1,0.2-1.9,0.3-2.9,0.4
		c-4.4,0.2-7.6-0.8-9.4-2.8c-0.5-0.6-1.1-1.2-1.8-1.8l-1.4-1.3c-0.4-0.3-0.7-0.7-0.9-1.1c0,0,0.1-0.3,0.8-1c2.4-2.2,5.1-4.2,7.9-5.8
		c2.2-1.4,4.3-1.4,7.3-0.3c1.1,0.4,1.1,0.7,1,1.2c-0.1,0.8-0.2,1.5-0.3,2.3c-0.1,0.6-0.1,1.1-0.2,1.7c-0.3,1.8,0.7,3.5,2.4,4.2
		c1.3,0.7,2.9,0.4,3.9-0.7l0.1-0.1c0.5-0.4,1-0.8,1.5-1.1l0.7-0.6l0.3-0.2c1.1-0.6,1.7-1.7,1.8-2.9c0-0.7-0.3-1.4-0.9-1.9
		c0.2-0.6,0.5-1.2,0.7-1.8c1-2.5,2-5.1,1.8-8.1c0-0.2,0-0.5,0.1-0.7c0.1-1,0.5-3.5-2-4.4s-4.1,1-5,2.1l-0.4,0.4
		c-0.4,0.4-0.7,0.6-1.9,0.6h-1.1c-2.7,0-5.4,0.2-8.1,0.8c-8,1.7-15,6.2-19.9,12.8c-3.1,4-2.6,7.4-1.8,9.7c0.5,1.2,1.2,2.4,2.1,3.3
		c1.9,2.1,4,3.9,6.4,5.4c1,0.7,2.1,1.2,3.2,1.8l-1.8,0.9l6.2,0.9c0.9,0.2,1.8,0.4,2.6,0.4c2.7,0.4,5.4,1.1,8.1,2
		c-0.9,0.8-1.6,1.6-2.3,2.4c-1.8,2-4.9,2.9-9.3,2.8c-4.2-0.2-8.3-1.7-11.7-4.3c-0.1-0.1-0.2-0.2-0.4-0.3c-0.8-0.7-2.8-2.5-4.9-1
		c-0.6,0.4-1,1.1-1.2,1.8c-0.1,1.1,0.4,2.3,1.2,3.1c0.1,0.1,0.2,0.3,0.3,0.4c0.6,1,1.4,1.9,2.4,2.6l1.6,1.1c4,2.7,8.1,5.6,13,7.5
		c3,1.2,6.3,1.2,9.3,0.1c4.9-1.7,9.3-4.7,12.8-8.6C465.7,104.8,465.9,100.2,462.5,95.9z"/>
	<path d="M71.6,40.8c3.3,0.5,5.4,2.7,7.7,4.8c1.2,1,2.1,2.5,2.5,4.1c0.6,3-0.2,6.1-2.3,8.4c-1,1.2-2.3,2.1-3.6,2.8
		c-0.5,0.2-0.7,0.7-0.6,1.1c0,0,0,0,0,0c0.5,2.6,0.4,5.3-0.3,7.8c-0.3,1-0.7,1.9-1.2,2.9c-0.1,0.3-0.3,0.6-0.4,1
		c1.3,0.7,2.5,1.3,3.8,1.9c1.1,0.5,2.1,1,3.2,1.5c3.1,1.6,6.3,3.1,9.4,4.7c1.3,0.6,2.5,1.3,3.6,2.1c1.9,1.8,2.1,4.8,0.3,6.8
		c-0.2,0.2-0.3,0.4-0.5,0.5c-1.4,1.1-3.2,1.4-4.8,0.8c-1.3-0.4-2.6-0.8-3.9-1.3c-3-1.1-5.9-2.3-8.9-3.5c-0.2-0.1-0.3-0.1-0.5-0.1
		l0.6,5.3c-3.2-0.5-6.4-0.1-9.4,1c-0.2-0.6-0.3-1.1-0.5-1.6c-0.9-1.9-2.6-3.4-4.6-4.2c-3.9-1.8-8.5-1.3-11.8,1.3
		c-1.2,0.9-2.1,2.1-2.6,3.5c-0.1,0.3-0.3,0.6-0.4,1c-2.9-1.1-6.1-1.5-9.3-1l0.6-5.3L35.5,88c-3.5,1.3-7,2.7-10.5,4
		c-1.6,0.7-3.5,0.6-5-0.3c-1.6-0.9-3-3.5-2.3-5.5c0.5-1.4,1.6-2.6,3-3.3c1.9-1,3.8-1.9,5.6-2.8l12.6-6.2c0.1-0.1,0.2-0.2,0.3-0.3
		c-0.3-0.4-0.6-0.9-0.9-1.4c-1.3-3.1-1.7-6.5-1.2-9.9c0.2-0.6-0.1-1.3-0.8-1.5c0,0,0,0-0.1,0c-2.2-1-3.9-2.8-4.9-5
		c-1.1-1.9-1.3-4.1-0.8-6.2c0.5-1.8,1.6-3.3,3-4.4c0.2-0.1,0.3-0.3,0.5-0.4c1.9-1.9,3.9-3.5,6.7-4h1.7c0.2,0,0.4,0.1,0.6,0.1
		c3,0.3,5.7,1.8,7.6,4.2c0.5,0.6,0.8,1.3,1.3,1.9c0.1,0.2,0.4,0.3,0.6,0.3c2.5-0.4,5-0.4,7.4,0c0.2,0,0.4-0.1,0.6-0.3
		c0.6-0.8,1.1-1.6,1.7-2.3c0.9-1.2,2.2-2.1,3.6-2.6c1.4-0.5,2.8-0.8,4.2-1.1L71.6,40.8z M55.7,79.7c2.1,0.1,4.1-0.4,6-1.3
		c2.8-1.3,4.8-3.7,5.7-6.6c1-2.9,0.6-6-1.2-8.5c-0.6-0.9-1.4-1.8-2.2-2.6c-2.7-2.4-6.3-3.4-9.8-2.7c-3.6,0.5-6.7,2.6-8.3,5.8
		c-2.6,4.8-1.1,10.8,3.5,13.8C51.2,78.9,53.4,79.6,55.7,79.7z M73,55.7c0.6-0.5,1.3-1,1.8-1.6C75.9,53,76,51.2,75,50
		c-0.8-0.7-1.6-1.5-2.4-2.2c-0.4-0.4-1-0.7-1.5-0.8c-1.9-0.2-3.8,0.8-4.6,2.6c1.2,0.9,2.4,1.7,3.4,2.7S71.9,54.4,73,55.7z
		 M46.1,49.7c-0.7-1.7-2.4-2.7-4.2-2.7c-0.4,0-0.8,0.2-1.2,0.4c-0.9,0.6-1.7,1.3-2.5,2.1c-0.6,0.5-1,1.1-1.2,1.8
		c-0.2,1.9,1,3.7,2.8,4.3C41.5,53.2,43.6,51.1,46.1,49.7L46.1,49.7z"/>
	<path d="M52.9,109.2c-0.2,1.4-0.5,2.7-1,4c-2,5.1-7.7,7.7-12.8,5.8c-2-0.7-3.8-2-5.2-3.6c-1.3-1.7-2.3-3.6-2.8-5.7
		c-0.4-1.4-0.6-2.8-0.3-4.2c0.3-2.2,1.1-4.3,2.5-6c3.1-3.7,8.3-4.7,12.5-2.5c2.4,1.2,4.3,3.2,5.5,5.6
		C52.3,104.6,52.9,106.9,52.9,109.2z"/>
	<path d="M71.6,95.8c3.1,0.1,6,1.5,7.9,4c3,3.7,2.9,9.8,0.5,13.7c-1.6,2.8-4.2,4.9-7.4,5.7c-2.6,0.7-5.4,0.4-7.7-1.1
		c-4-2.5-5.4-6.3-5.1-10.8c0.1-1.8,0.6-3.5,1.5-5.1C63.6,98.3,66.9,96,71.6,95.8z"/>
	<path class="st3" d="M55.7,79.7c-2.3-0.1-4.5-0.8-6.4-2.2c-4.6-3-6.1-9-3.4-13.8c1.7-3.2,4.8-5.3,8.3-5.8c3.5-0.7,7.2,0.3,9.8,2.7
		c0.8,0.8,1.6,1.6,2.2,2.6c1.8,2.5,2.2,5.7,1.2,8.5c-0.9,2.9-2.9,5.3-5.7,6.6C59.9,79.4,57.8,79.8,55.7,79.7z M56.3,70.6
		c2.5-0.2,4.4-2.4,4.2-4.9c-0.2-2.5-2.4-4.4-4.9-4.2c-2.4,0.2-4.2,2.2-4.2,4.6c0,2.6,2.2,4.6,4.7,4.5C56.2,70.6,56.3,70.6,56.3,70.6
		z"/>
	<path class="st3" d="M73,55.7c-1.1-1.3-2-2.5-3.1-3.5s-2.3-1.8-3.4-2.7c0.8-1.7,2.7-2.7,4.6-2.5c0.6,0.2,1.1,0.5,1.5,0.9
		c0.8,0.7,1.6,1.4,2.4,2.2c1,1.2,0.9,3-0.1,4.1C74.2,54.7,73.6,55.2,73,55.7z"/>
	<path class="st3" d="M46.1,49.6c-2.5,1.5-4.6,3.5-6.3,5.9c-1.8-0.6-3-2.4-2.8-4.3c0.2-0.7,0.7-1.4,1.3-1.9c0.8-0.8,1.6-1.5,2.5-2.1
		c0.3-0.3,0.8-0.4,1.2-0.4C43.7,46.9,45.3,48,46.1,49.6z"/>
	<path d="M56.3,70.6c-2.5-0.1-4.5-2.2-4.4-4.8c0.1-2.5,2.2-4.5,4.8-4.4c2.4,0.1,4.3,2.1,4.4,4.5C61.1,68.6,59,70.6,56.3,70.6
		C56.4,70.6,56.3,70.6,56.3,70.6z"/>
	<circle class="st3" cx="52.3" cy="53.5" r="2.2"/>
	<circle class="st3" cx="61.5" cy="53.5" r="2.2"/>
	
		<ellipse transform="matrix(6.331303e-02 -0.998 0.998 6.331303e-02 4.5434 112.2935)" class="st4" cx="62.1" cy="53.7" rx="1.3" ry="1"/>
	
		<ellipse transform="matrix(5.989229e-02 -0.9982 0.9982 5.989229e-02 -3.6981 102.9609)" class="st4" cx="52.8" cy="53.4" rx="1.3" ry="1"/>
</g>
</svg>
